<?xml version="1.0" standalone="no"?>
<!DOCTYPE svg PUBLIC "-//W3C//DTD SVG 20010904//EN"
 "http://www.w3.org/TR/2001/REC-SVG-20010904/DTD/svg10.dtd">
<svg version="1.0" xmlns="http://www.w3.org/2000/svg"
 width="1080.000000pt" height="1080.000000pt" viewBox="0 0 1080.000000 1080.000000"
 preserveAspectRatio="xMidYMid meet">

<g transform="translate(0.000000,1080.000000) scale(0.100000,-0.100000)"
fill="#000000" stroke="none">
<path d="M3482 6988 l3 -71 100 -17 c163 -28 218 -69 257 -192 21 -68 37 -280
38 -495 l0 -123 115 0 115 0 0 245 c0 135 3 245 8 245 4 0 55 -109 113 -243
l105 -242 247 -3 c136 -1 247 -1 247 1 0 1 -92 219 -205 482 l-204 480 -471 3
-471 2 3 -72z"/>
<path d="M6230 6593 c-113 -256 -208 -474 -212 -484 -7 -18 0 -19 116 -19
l124 0 108 245 c145 325 144 325 144 0 l0 -245 205 0 205 0 0 113 c0 214 18
439 40 511 38 121 121 177 284 193 l66 6 0 73 0 74 -437 0 -438 0 -205 -467z"/>
<path d="M1638 5965 c-82 -22 -141 -57 -204 -119 -98 -99 -144 -219 -144 -381
0 -251 126 -423 349 -475 121 -28 295 0 392 65 21 14 43 25 47 25 5 0 15 -20
22 -45 10 -37 17 -45 37 -45 l24 0 -3 158 -3 157 -24 0 c-19 0 -27 -10 -43
-50 -38 -97 -114 -172 -197 -195 -54 -15 -171 -12 -223 6 -66 22 -122 75 -158
147 -38 78 -50 144 -50 266 1 255 103 409 291 436 60 9 161 -16 214 -53 45
-31 103 -112 112 -154 4 -21 11 -28 29 -28 24 0 24 1 24 99 0 136 -9 193 -29
189 -8 -2 -19 -18 -25 -36 -5 -17 -13 -32 -18 -32 -5 0 -30 11 -56 24 -109 55
-254 72 -364 41z"/>
<path d="M3772 5964 c-169 -45 -305 -169 -363 -330 -31 -86 -31 -237 0 -317
55 -141 175 -259 313 -307 87 -30 230 -37 322 -16 180 42 324 174 376 344 82
266 -92 561 -371 627 -79 18 -207 18 -277 -1z m255 -70 c138 -47 220 -162 242
-344 27 -214 -48 -394 -196 -466 -72 -36 -192 -44 -275 -20 -149 43 -235 173
-246 368 -11 225 70 390 224 453 72 30 179 33 251 9z"/>
<path d="M9191 5964 c-80 -21 -144 -60 -205 -124 -98 -102 -139 -218 -138
-385 1 -242 117 -405 329 -460 65 -17 187 -19 252 -4 23 5 84 30 134 54 50 25
100 45 111 45 12 0 31 3 44 6 21 6 22 11 22 109 0 100 1 104 26 124 15 12 37
21 50 21 19 0 24 5 24 25 l0 25 -180 0 -180 0 0 -25 c0 -20 5 -25 25 -25 40 0
84 -27 92 -58 24 -90 -7 -162 -89 -207 -70 -38 -197 -47 -279 -20 -73 25 -148
100 -178 179 -28 76 -41 205 -30 310 20 201 100 314 249 352 163 41 340 -60
340 -196 0 -28 3 -30 35 -30 34 0 35 1 35 38 0 22 3 87 7 145 6 105 6 107 -16
107 -20 0 -25 -7 -46 -67 -3 -9 -17 -5 -47 12 -107 62 -265 82 -387 49z"/>
<path d="M2380 5946 c0 -20 6 -25 45 -30 77 -12 75 1 75 -438 0 -371 -1 -389
-19 -407 -11 -11 -37 -23 -58 -26 -58 -10 -63 -13 -63 -35 0 -20 5 -20 415
-20 l415 0 1 43 c0 23 4 79 7 125 7 81 7 82 -16 82 -13 0 -25 -8 -28 -17 -24
-73 -56 -121 -96 -144 -40 -22 -52 -24 -188 -24 -164 0 -190 8 -216 70 -18 44
-21 709 -3 748 13 28 48 47 84 47 20 0 25 5 25 25 l0 25 -190 0 -190 0 0 -24z"/>
<path d="M4620 5850 c0 -113 1 -120 20 -120 13 0 21 8 25 25 3 14 7 36 10 48
2 13 14 36 26 51 37 47 70 57 191 58 98 0 113 -2 125 -18 12 -16 14 -87 11
-394 -3 -344 -5 -378 -21 -404 -21 -31 -72 -56 -117 -56 -25 0 -30 -4 -30 -25
l0 -25 240 0 240 0 0 25 c0 21 -5 25 -30 25 -42 0 -94 23 -114 51 -14 21 -16
69 -16 416 0 386 0 392 20 398 35 11 196 8 234 -5 47 -15 81 -58 96 -119 11
-45 15 -51 37 -51 l26 0 -7 77 c-3 42 -6 96 -6 120 l0 43 -480 0 -480 0 0
-120z"/>
<path d="M5760 5946 c0 -20 6 -25 45 -30 77 -12 75 1 75 -438 0 -371 -1 -389
-19 -407 -11 -11 -37 -23 -58 -26 -58 -10 -63 -13 -63 -35 0 -19 6 -20 210
-20 l210 0 0 24 c0 20 -6 24 -46 29 -29 3 -54 13 -68 26 -20 20 -21 33 -24
206 l-3 185 255 0 256 0 0 -175 c0 -109 -4 -183 -11 -199 -13 -27 -54 -46
-100 -46 -24 0 -29 -4 -29 -25 l0 -25 210 0 210 0 0 24 c0 21 -6 24 -47 29
-35 4 -53 12 -70 32 l-23 26 0 374 c0 253 4 382 11 398 13 28 48 47 84 47 20
0 25 5 25 25 l0 25 -190 0 -190 0 0 -24 c0 -20 6 -24 40 -30 76 -12 80 -22 80
-221 l0 -175 -255 0 -255 0 0 165 c0 99 4 174 11 188 13 28 48 47 84 47 20 0
25 5 25 25 l0 25 -190 0 -190 0 0 -24z"/>
<path d="M7010 5947 c0 -19 8 -25 42 -33 27 -6 49 -19 62 -37 20 -27 21 -43
24 -340 2 -172 1 -340 -3 -375 -8 -79 -33 -111 -93 -119 -36 -5 -42 -9 -42
-29 l0 -24 205 0 205 0 0 25 c0 21 -5 25 -30 25 -45 0 -89 26 -97 58 -5 15 -8
187 -8 382 0 382 3 407 51 429 14 6 36 11 49 11 20 0 25 5 25 25 l0 25 -195 0
-195 0 0 -23z"/>
<path d="M7612 5948 c2 -16 15 -25 51 -35 77 -22 77 -23 77 -433 0 -284 -3
-357 -15 -385 -15 -37 -46 -55 -96 -55 -24 0 -29 -4 -29 -25 l0 -25 170 0 170
0 0 25 c0 21 -5 25 -29 25 -17 0 -42 10 -58 24 l-28 24 -3 344 c-3 296 -1 341
11 328 8 -8 144 -186 302 -395 285 -378 287 -380 326 -383 l39 -3 1 388 c0
213 4 414 8 446 9 70 32 96 90 104 35 5 41 9 41 29 l0 24 -170 0 -170 0 0 -24
c0 -20 6 -24 42 -29 85 -11 90 -37 86 -421 l-3 -270 -279 372 -278 372 -130 0
c-127 0 -129 0 -126 -22z"/>
<path d="M3867 4588 c-12 -274 -78 -354 -310 -380 l-107 -12 0 -73 0 -73 543
2 542 3 3 70 3 71 -112 11 c-235 25 -287 87 -311 371 l-12 132 -116 0 -117 0
-6 -122z"/>
<path d="M5094 4363 l153 -348 43 0 44 0 153 340 c84 187 152 343 153 348 0 4
-157 7 -349 7 l-349 0 152 -347z"/>
<path d="M6510 4628 c-1 -111 -22 -223 -54 -286 -44 -87 -123 -124 -294 -138
l-83 -7 3 -71 3 -71 633 -3 632 -2 0 73 0 73 -110 12 c-62 6 -129 20 -153 30
-99 44 -145 148 -154 350 l-6 122 -208 0 -209 0 0 -82z"/>
</g>
</svg>
